<?xml version="1.0" encoding="UTF-8"?>
<!DOCTYPE svg PUBLIC "-//W3C//DTD SVG 1.1//EN" "http://www.w3.org/Graphics/SVG/1.1/DTD/svg11.dtd">
<svg xmlns="http://www.w3.org/2000/svg" version="1.1" width="500px" height="500px" style="shape-rendering:geometricPrecision; text-rendering:geometricPrecision; image-rendering:optimizeQuality; fill-rule:evenodd; clip-rule:evenodd" xmlns:xlink="http://www.w3.org/1999/xlink">
<g><path style="opacity:1" fill="#020021" d="M -0.5,-0.5 C 5.16667,-0.5 10.8333,-0.5 16.5,-0.5C 16.8333,166.167 17.1667,332.833 17.5,499.5C 11.5,499.5 5.5,499.5 -0.5,499.5C -0.5,332.833 -0.5,166.167 -0.5,-0.5 Z"/></g>
<g><path style="opacity:1" fill="#040028" d="M 16.5,-0.5 C 21.1667,-0.5 25.8333,-0.5 30.5,-0.5C 30.8333,166.167 31.1667,332.833 31.5,499.5C 26.8333,499.5 22.1667,499.5 17.5,499.5C 17.1667,332.833 16.8333,166.167 16.5,-0.5 Z"/></g>
<g><path style="opacity:1" fill="#07002f" d="M 36.5,-0.5 C 39.1667,-0.5 41.8333,-0.5 44.5,-0.5C 44.8333,166.167 45.1667,332.833 45.5,499.5C 42.1667,499.5 38.8333,499.5 35.5,499.5C 35.8333,332.833 36.1667,166.167 36.5,-0.5 Z"/></g>
<g><path style="opacity:1" fill="#090135" d="M 44.5,-0.5 C 50.5,-0.5 56.5,-0.5 62.5,-0.5C 61.4024,148.382 61.4024,297.215 62.5,446C 61.9056,446.464 61.2389,446.631 60.5,446.5C 57.6132,441.998 55.7798,436.998 55,431.5C 53.9887,430.663 52.8221,430.33 51.5,430.5C 51.9283,440.999 55.9283,449.665 63.5,456.5C 62.7611,456.369 62.0944,456.536 61.5,457C 62.5976,471.118 62.5976,485.284 61.5,499.5C 56.1667,499.5 50.8333,499.5 45.5,499.5C 45.1667,332.833 44.8333,166.167 44.5,-0.5 Z"/></g>
<g><path style="opacity:1" fill="#0b013b" d="M 62.5,-0.5 C 67.1667,-0.5 71.8333,-0.5 76.5,-0.5C 75.737,152.381 75.4037,305.381 75.5,458.5C 68.7695,456.638 63.7695,452.638 60.5,446.5C 61.2389,446.631 61.9056,446.464 62.5,446C 61.4024,297.215 61.4024,148.382 62.5,-0.5 Z"/></g>
<g><path style="opacity:1" fill="#0e0141" d="M 76.5,-0.5 C 81.1667,-0.5 85.8333,-0.5 90.5,-0.5C 89.1667,152.5 89.1667,305.5 90.5,458.5C 85.5999,459.8 80.5999,459.8 75.5,458.5C 75.4037,305.381 75.737,152.381 76.5,-0.5 Z"/></g>
<g><path style="opacity:1" fill="#100147" d="M 90.5,-0.5 C 95.1667,-0.5 99.8333,-0.5 104.5,-0.5C 103.5,151 103.5,302.333 104.5,453.5C 100.201,455.935 95.534,457.602 90.5,458.5C 89.1667,305.5 89.1667,152.5 90.5,-0.5 Z"/></g>
<g><path style="opacity:1" fill="#11014c" d="M 104.5,-0.5 C 106.5,-0.5 108.5,-0.5 110.5,-0.5C 110.402,148.049 110.069,296.549 109.5,445C 110.705,446.376 112.038,447.542 113.5,448.5C 110.76,450.56 107.76,452.226 104.5,453.5C 103.5,302.333 103.5,151 104.5,-0.5 Z"/></g>
<g><path style="opacity:1" fill="#150154" d="M 120.5,-0.5 C 125.167,-0.5 129.833,-0.5 134.5,-0.5C 134.403,56.0495 134.069,112.55 133.5,169C 134.094,169.464 134.761,169.631 135.5,169.5C 134.625,173.779 133.791,178.113 133,182.5C 132.667,197.167 132.333,211.833 132,226.5C 127.922,228.455 124.088,230.788 120.5,233.5C 119.5,155.667 119.5,77.6667 120.5,-0.5 Z"/></g>
<g><path style="opacity:1" fill="#18015c" d="M 134.5,-0.5 C 143.833,-0.5 153.167,-0.5 162.5,-0.5C 161.931,38.0478 161.598,76.5478 161.5,115C 162.044,115.717 162.711,116.217 163.5,116.5C 149.709,131.746 140.376,149.412 135.5,169.5C 134.761,169.631 134.094,169.464 133.5,169C 134.069,112.55 134.403,56.0495 134.5,-0.5 Z"/></g>
<g><path style="opacity:1" fill="#1d016b" d="M 162.5,-0.5 C 172.5,-0.5 182.5,-0.5 192.5,-0.5C 191.932,30.0475 191.598,60.5475 191.5,91C 192.044,91.7172 192.711,92.2172 193.5,92.5C 182.366,99.0691 172.366,107.069 163.5,116.5C 162.711,116.217 162.044,115.717 161.5,115C 161.598,76.5478 161.931,38.0478 162.5,-0.5 Z"/></g>
<g><path style="opacity:1" fill="#210177" d="M 192.5,-0.5 C 201.833,-0.5 211.167,-0.5 220.5,-0.5C 220.403,26.7169 220.07,53.8836 219.5,81C 220.094,81.4643 220.761,81.631 221.5,81.5C 212.02,84.5648 202.687,88.2315 193.5,92.5C 192.711,92.2172 192.044,91.7172 191.5,91C 191.598,60.5475 191.932,30.0475 192.5,-0.5 Z"/></g>
<g><path style="opacity:1" fill="#260184" d="M 220.5,-0.5 C 230.5,-0.5 240.5,-0.5 250.5,-0.5C 250.403,25.3837 250.07,51.217 249.5,77C 251.833,78.043 254.166,78.8763 256.5,79.5C 244.753,79.1029 233.086,79.7696 221.5,81.5C 220.761,81.631 220.094,81.4643 219.5,81C 220.07,53.8836 220.403,26.7169 220.5,-0.5 Z"/></g>
<g><path style="opacity:1" fill="#2d018c" d="M 250.5,-0.5 C 258.5,-0.5 266.5,-0.5 274.5,-0.5C 274.264,26.3821 274.264,53.2155 274.5,80C 273.207,80.49 271.873,80.6567 270.5,80.5C 265.833,80.1667 261.167,79.8333 256.5,79.5C 254.166,78.8763 251.833,78.043 249.5,77C 250.07,51.217 250.403,25.3837 250.5,-0.5 Z"/></g>
<g><path style="opacity:1" fill="#3a0294" d="M 274.5,-0.5 C 283.833,-0.5 293.167,-0.5 302.5,-0.5C 302.167,30.1667 301.833,60.8333 301.5,91.5C 291.442,86.8157 281.109,83.1491 270.5,80.5C 271.873,80.6567 273.207,80.49 274.5,80C 274.264,53.2155 274.264,26.3821 274.5,-0.5 Z"/></g>
<g><path style="opacity:1" fill="#46039b" d="M 302.5,-0.5 C 311.833,-0.5 321.167,-0.5 330.5,-0.5C 330.833,37 330.833,74.3333 330.5,111.5C 321.704,103.599 312.037,96.9326 301.5,91.5C 301.833,60.8333 302.167,30.1667 302.5,-0.5 Z"/></g>
<g><path style="opacity:1" fill="#5203a3" d="M 330.5,-0.5 C 341.167,-0.5 351.833,-0.5 362.5,-0.5C 362.264,53.0488 362.264,106.549 362.5,160C 361.956,160.717 361.289,161.217 360.5,161.5C 354.576,142.306 344.576,125.639 330.5,111.5C 330.833,74.3333 330.833,37 330.5,-0.5 Z"/></g>
<g><path style="opacity:1" fill="#5f04ab" d="M 362.5,-0.5 C 372.5,-0.5 382.5,-0.5 392.5,-0.5C 391.5,77.6667 391.5,155.667 392.5,233.5C 385.672,238.26 379.672,237.427 374.5,231C 371.588,229.627 368.754,228.127 366,226.5C 365.667,211.833 365.333,197.167 365,182.5C 364.141,175.339 362.641,168.339 360.5,161.5C 361.289,161.217 361.956,160.717 362.5,160C 362.264,106.549 362.264,53.0488 362.5,-0.5 Z"/></g>
<g><path style="opacity:1" fill="#6b05b2" d="M 392.5,-0.5 C 401.167,-0.5 409.833,-0.5 418.5,-0.5C 417.596,74.048 417.596,148.715 418.5,223.5C 410.54,228.473 401.873,231.806 392.5,233.5C 391.5,155.667 391.5,77.6667 392.5,-0.5 Z"/></g>
<g><path style="opacity:1" fill="#7505b9" d="M 418.5,-0.5 C 426.5,-0.5 434.5,-0.5 442.5,-0.5C 442.167,166.167 441.833,332.833 441.5,499.5C 433.5,499.5 425.5,499.5 417.5,499.5C 418.263,409.286 418.597,318.953 418.5,228.5C 423.515,225.996 428.181,222.996 432.5,219.5C 430.926,218.369 429.259,218.202 427.5,219C 424.447,220.527 421.447,222.027 418.5,223.5C 417.596,148.715 417.596,74.048 418.5,-0.5 Z"/></g>
<g><path style="opacity:1" fill="#7e05be" d="M 442.5,-0.5 C 449.833,-0.5 457.167,-0.5 464.5,-0.5C 464.167,166.167 463.833,332.833 463.5,499.5C 456.167,499.5 448.833,499.5 441.5,499.5C 441.833,332.833 442.167,166.167 442.5,-0.5 Z"/></g>
<g><path style="opacity:1" fill="#8806c4" d="M 464.5,-0.5 C 471.833,-0.5 479.167,-0.5 486.5,-0.5C 486.167,166.167 485.833,332.833 485.5,499.5C 478.167,499.5 470.833,499.5 463.5,499.5C 463.833,332.833 464.167,166.167 464.5,-0.5 Z"/></g>
<g><path style="opacity:1" fill="#8e06c9" d="M 486.5,-0.5 C 490.833,-0.5 495.167,-0.5 499.5,-0.5C 499.5,166.167 499.5,332.833 499.5,499.5C 494.833,499.5 490.167,499.5 485.5,499.5C 485.833,332.833 486.167,166.167 486.5,-0.5 Z"/></g>
<g><path style="opacity:1" fill="#f8f6fa" d="M 256.5,79.5 C 261.167,79.8333 265.833,80.1667 270.5,80.5C 281.109,83.1491 291.442,86.8157 301.5,91.5C 312.037,96.9326 321.704,103.599 330.5,111.5C 344.576,125.639 354.576,142.306 360.5,161.5C 362.641,168.339 364.141,175.339 365,182.5C 365.333,197.167 365.667,211.833 366,226.5C 368.754,228.127 371.588,229.627 374.5,231C 379.672,237.427 385.672,238.26 392.5,233.5C 401.873,231.806 410.54,228.473 418.5,223.5C 421.447,222.027 424.447,220.527 427.5,219C 429.259,218.202 430.926,218.369 432.5,219.5C 428.181,222.996 423.515,225.996 418.5,228.5C 409.568,232.252 400.568,235.586 391.5,238.5C 388.518,238.963 385.518,239.296 382.5,239.5C 384.449,246.345 384.949,253.345 384,260.5C 381.315,272.24 378.481,283.907 375.5,295.5C 374.274,304.977 369.94,312.811 362.5,319C 356.377,322.696 349.711,324.196 342.5,323.5C 335.924,333.139 326.924,336.472 315.5,333.5C 306.074,330.502 301.408,324.002 301.5,314C 306.305,289.946 311.972,266.113 318.5,242.5C 310.751,242.648 303.084,241.981 295.5,240.5C 292.201,239.624 288.868,239.457 285.5,240C 280.423,242.257 276.09,245.424 272.5,249.5C 263.813,256.855 256.147,265.188 249.5,274.5C 235.246,293.611 221.913,313.444 209.5,334C 222.682,340.581 236.349,342.081 250.5,338.5C 255.043,337.231 259.376,335.397 263.5,333C 264.944,332.219 266.277,332.386 267.5,333.5C 263.146,338.67 257.813,342.337 251.5,344.5C 246.219,345.556 240.886,346.223 235.5,346.5C 230.733,346.474 226.066,345.807 221.5,344.5C 216.923,342.551 212.256,340.551 207.5,338.5C 206.893,338.624 206.56,338.957 206.5,339.5C 196.918,354.993 187.585,370.66 178.5,386.5C 172.255,395.32 166.255,404.32 160.5,413.5C 151.902,424.104 142.902,434.437 133.5,444.5C 124.555,451.47 114.888,457.137 104.5,461.5C 95.5904,463.162 86.5904,463.829 77.5,463.5C 72.4984,461.937 67.8318,459.604 63.5,456.5C 55.9283,449.665 51.9283,440.999 51.5,430.5C 52.8221,430.33 53.9887,430.663 55,431.5C 55.7798,436.998 57.6132,441.998 60.5,446.5C 63.7695,452.638 68.7695,456.638 75.5,458.5C 80.5999,459.8 85.5999,459.8 90.5,458.5C 95.534,457.602 100.201,455.935 104.5,453.5C 107.76,452.226 110.76,450.56 113.5,448.5C 121.811,443.189 128.811,436.522 134.5,428.5C 145.861,416.787 155.527,403.787 163.5,389.5C 174.155,371.528 184.822,353.528 195.5,335.5C 195.291,334.914 194.957,334.414 194.5,334C 191.845,333.436 189.179,332.936 186.5,332.5C 178.387,333.643 170.387,334.977 162.5,336.5C 161.027,337.072 159.693,337.905 158.5,339C 157.167,339.667 155.833,339.667 154.5,339C 157.557,336.277 160.89,333.944 164.5,332C 161.305,330.305 158.972,327.805 157.5,324.5C 149.696,324.434 142.363,322.768 135.5,319.5C 131.392,315.886 128.225,311.553 126,306.5C 121.687,291.248 117.687,275.915 114,260.5C 111.762,250.337 113.929,241.337 120.5,233.5C 124.088,230.788 127.922,228.455 132,226.5C 132.333,211.833 132.667,197.167 133,182.5C 133.791,178.113 134.625,173.779 135.5,169.5C 140.376,149.412 149.709,131.746 163.5,116.5C 172.366,107.069 182.366,99.0691 193.5,92.5C 202.687,88.2315 212.02,84.5648 221.5,81.5C 233.086,79.7696 244.753,79.1029 256.5,79.5 Z"/></g>
<g><path style="opacity:1" fill="#2a097d" d="M 260.5,87.5 C 257.15,87.335 253.817,87.5017 250.5,88C 250.394,90.4657 250.061,92.9657 249.5,95.5C 229.965,95.7909 211.965,101.124 195.5,111.5C 194.761,111.631 194.094,111.464 193.5,111C 193.736,108.216 193.736,105.382 193.5,102.5C 214.013,89.2492 236.346,84.2492 260.5,87.5 Z"/></g>
<g><path style="opacity:1" fill="#400a97" d="M 260.5,87.5 C 282.253,89.2964 301.253,97.2964 317.5,111.5C 316.264,114.544 316.264,117.711 317.5,121C 316.906,121.464 316.239,121.631 315.5,121.5C 296.609,105.198 274.609,96.5314 249.5,95.5C 250.061,92.9657 250.394,90.4657 250.5,88C 253.817,87.5017 257.15,87.335 260.5,87.5 Z"/></g>
<g><path style="opacity:1" fill="#270185" d="M 250.5,103.5 C 249.931,142.048 249.598,180.548 249.5,219C 251.394,220.101 252.061,221.434 251.5,223C 252.858,223.934 254.192,224.768 255.5,225.5C 249.858,224.646 244.191,223.98 238.5,223.5C 236.166,222.876 233.833,222.043 231.5,221C 232.833,183 232.833,145 231.5,107C 232.571,106.148 233.571,105.315 234.5,104.5C 239.813,103.902 245.146,103.569 250.5,103.5 Z"/></g>
<g><path style="opacity:1" fill="#2e018c" d="M 250.5,103.5 C 258.749,103.685 266.749,105.018 274.5,107.5C 274.264,147.715 274.264,187.882 274.5,228C 273.552,228.483 272.552,228.649 271.5,228.5C 266.176,227.505 260.843,226.505 255.5,225.5C 254.192,224.768 252.858,223.934 251.5,223C 252.061,221.434 251.394,220.101 249.5,219C 249.598,180.548 249.931,142.048 250.5,103.5 Z"/></g>
<g><path style="opacity:1" fill="#23017b" d="M 234.5,104.5 C 233.571,105.315 232.571,106.148 231.5,107C 232.833,145 232.833,183 231.5,221C 233.833,222.043 236.166,222.876 238.5,223.5C 227.759,223.186 217.092,223.853 206.5,225.5C 206.498,188.665 206.165,151.665 205.5,114.5C 214.603,109.577 224.27,106.243 234.5,104.5 Z"/></g>
<g><path style="opacity:1" fill="#390293" d="M 274.5,107.5 C 284.977,110.072 294.311,114.739 302.5,121.5C 302.595,159.05 302.262,196.717 301.5,234.5C 291.259,233.118 281.259,231.118 271.5,228.5C 272.552,228.649 273.552,228.483 274.5,228C 274.264,187.882 274.264,147.715 274.5,107.5 Z"/></g>
<g><path style="opacity:1" fill="#1f016f" d="M 205.5,114.5 C 206.165,151.665 206.498,188.665 206.5,225.5C 196.844,228.576 187.678,232.909 179,238.5C 178.178,235.883 177.678,233.216 177.5,230.5C 177.5,200.167 177.5,169.833 177.5,139.5C 184.898,129.108 194.231,120.774 205.5,114.5 Z"/></g>
<g><path style="opacity:1" fill="#5510a4" d="M 317.5,111.5 C 341.706,130.901 355.206,156.234 358,187.5C 358.831,194.856 358.665,202.189 357.5,209.5C 354.397,207.688 351.064,206.688 347.5,206.5C 349.815,173.091 339.148,144.757 315.5,121.5C 316.239,121.631 316.906,121.464 317.5,121C 316.264,117.711 316.264,114.544 317.5,111.5 Z"/></g>
<g><path style="opacity:1" fill="#1e0464" d="M 193.5,102.5 C 193.736,105.382 193.736,108.216 193.5,111C 194.094,111.464 194.761,111.631 195.5,111.5C 163.681,134.474 148.348,165.808 149.5,205.5C 146.47,206.432 143.637,207.765 141,209.5C 137.169,168.01 151.335,134.177 183.5,108C 186.727,105.888 190.06,104.055 193.5,102.5 Z"/></g>
<g><path style="opacity:1" fill="#47069c" d="M 302.5,121.5 C 322.492,136.06 334.659,155.726 339,180.5C 340.123,188.797 340.623,197.13 340.5,205.5C 335.149,206.674 330.649,209.341 327,213.5C 323.744,220.857 321.577,228.524 320.5,236.5C 314.046,236.555 307.712,235.888 301.5,234.5C 302.262,196.717 302.595,159.05 302.5,121.5 Z"/></g>
<g><path style="opacity:1" fill="#1e0268" d="M 177.5,139.5 C 177.5,169.833 177.5,200.167 177.5,230.5C 176.214,222.162 172.548,214.996 166.5,209C 164.167,207.833 161.833,206.667 159.5,205.5C 155.571,180.644 161.571,158.644 177.5,139.5 Z"/></g>
<g><path style="opacity:1" fill="#1c0362" d="M 151.5,212.5 C 158.791,211.977 163.957,214.977 167,221.5C 168.755,228.688 170.589,235.855 172.5,243C 164.087,252.985 157.587,264.152 153,276.5C 148.047,259.689 143.881,242.689 140.5,225.5C 140.478,223.035 140.978,220.702 142,218.5C 144.843,215.837 148.009,213.837 151.5,212.5 Z"/></g>
<g><path style="opacity:1" fill="#550da4" d="M 339.5,212.5 C 346.491,211.996 352.325,214.329 357,219.5C 357.799,226.277 357.299,232.943 355.5,239.5C 346.151,239.517 336.818,239.183 327.5,238.5C 328.399,231.572 330.232,224.905 333,218.5C 335.063,216.266 337.229,214.266 339.5,212.5 Z"/></g>
<g><path style="opacity:1" fill="#2b0488" d="M 235.5,230.5 C 246.657,231.193 257.657,232.86 268.5,235.5C 256.421,245.911 245.755,257.577 236.5,270.5C 236.167,257.167 235.833,243.833 235.5,230.5 Z"/></g>
<g><path style="opacity:1" fill="#24027b" d="M 235.5,230.5 C 235.833,243.833 236.167,257.167 236.5,270.5C 226.439,285.231 216.773,300.231 207.5,315.5C 206.761,315.631 206.094,315.464 205.5,315C 206.165,288.001 206.165,260.834 205.5,233.5C 215.257,230.794 225.257,229.794 235.5,230.5 Z"/></g>
<g><path style="opacity:1" fill="#210273" d="M 205.5,233.5 C 206.165,260.834 206.165,288.001 205.5,315C 206.094,315.464 206.761,315.631 207.5,315.5C 204.386,320.221 201.386,325.055 198.5,330C 195.793,330.328 193.126,329.995 190.5,329C 194.989,325.021 197.322,320.021 197.5,314C 192.328,291.977 186.994,269.977 181.5,248C 182.043,245.119 183.709,243.119 186.5,242C 192.619,238.606 198.952,235.772 205.5,233.5 Z"/></g>
<g><path style="opacity:1" fill="#6905b1" d="M 418.5,228.5 C 418.597,318.953 418.263,409.286 417.5,499.5C 408.833,499.5 400.167,499.5 391.5,499.5C 391.5,412.5 391.5,325.5 391.5,238.5C 400.568,235.586 409.568,232.252 418.5,228.5 Z"/></g>
<g><path style="opacity:1" fill="#6922af" d="M 364.5,234.5 C 372.828,238.169 372.495,239.169 363.5,237.5C 364.127,236.583 364.461,235.583 364.5,234.5 Z"/></g>
<g><path style="opacity:1" fill="#380193" d="M 295.5,240.5 C 296.29,241.794 297.29,242.961 298.5,244C 298.402,329.118 298.069,414.285 297.5,499.5C 289.5,499.5 281.5,499.5 273.5,499.5C 273.597,416.284 273.931,333.117 274.5,250C 273.906,249.536 273.239,249.369 272.5,249.5C 276.09,245.424 280.423,242.257 285.5,240C 288.868,239.457 292.201,239.624 295.5,240.5 Z"/></g>
<g><path style="opacity:1" fill="#6106ac" d="M 391.5,238.5 C 391.5,325.5 391.5,412.5 391.5,499.5C 386.167,499.5 380.833,499.5 375.5,499.5C 376.404,431.619 376.404,363.619 375.5,295.5C 378.481,283.907 381.315,272.24 384,260.5C 384.949,253.345 384.449,246.345 382.5,239.5C 385.518,239.296 388.518,238.963 391.5,238.5 Z"/></g>
<g><path style="opacity:1" fill="#19035a" d="M 132.5,234.5 C 133.117,234.611 133.617,234.944 134,235.5C 140.523,262.258 147.356,288.924 154.5,315.5C 145.596,317.299 138.762,314.299 134,306.5C 128.793,288.507 124.293,270.34 120.5,252C 121.67,244.14 125.67,238.307 132.5,234.5 Z"/></g>
<g><path style="opacity:1" fill="#b99ad9" d="M 325.5,244.5 C 335.008,243.177 344.675,243.177 354.5,244.5C 354.376,245.107 354.043,245.44 353.5,245.5C 344.348,244.506 335.015,244.173 325.5,244.5 Z"/></g>
<g><path style="opacity:1" fill="#4c059f" d="M 325.5,244.5 C 335.015,244.173 344.348,244.506 353.5,245.5C 347.338,270.148 341.171,294.815 335,319.5C 327.236,329.838 318.902,330.171 310,320.5C 309.094,318.256 308.594,315.923 308.5,313.5C 314.322,290.546 319.989,267.546 325.5,244.5 Z"/></g>
<g><path style="opacity:1" fill="#5909a7" d="M 362.5,242.5 C 366.833,242.5 371.167,242.5 375.5,242.5C 377.376,248.006 377.876,253.672 377,259.5C 372.847,274.445 368.847,289.445 365,304.5C 360.601,313.45 353.434,317.284 343.5,316C 349.909,291.531 356.242,267.031 362.5,242.5 Z"/></g>
<g><path style="opacity:1" fill="#2e018c" d="M 272.5,249.5 C 273.239,249.369 273.906,249.536 274.5,250C 273.931,333.117 273.597,416.284 273.5,499.5C 265.5,499.5 257.5,499.5 249.5,499.5C 249.736,448.618 249.736,397.785 249.5,347C 250.381,346.292 251.047,345.458 251.5,344.5C 257.813,342.337 263.146,338.67 267.5,333.5C 266.277,332.386 264.944,332.219 263.5,333C 259.376,335.397 255.043,337.231 250.5,338.5C 250.167,317.167 249.833,295.833 249.5,274.5C 256.147,265.188 263.813,256.855 272.5,249.5 Z"/></g>
<g><path style="opacity:1" fill="#1f0369" d="M 173.5,251.5 C 179.434,271.9 184.768,292.567 189.5,313.5C 189.08,322.902 184.08,327.569 174.5,327.5C 168.805,326.981 164.972,323.981 163,318.5C 159.93,306.718 157.096,294.885 154.5,283C 155.343,277.81 157.176,272.977 160,268.5C 164.333,262.67 168.833,257.004 173.5,251.5 Z"/></g>
<g><path style="opacity:1" fill="#140150" d="M 110.5,-0.5 C 113.833,-0.5 117.167,-0.5 120.5,-0.5C 119.5,77.6667 119.5,155.667 120.5,233.5C 113.929,241.337 111.762,250.337 114,260.5C 117.687,275.915 121.687,291.248 126,306.5C 128.225,311.553 131.392,315.886 135.5,319.5C 134.711,319.783 134.044,320.283 133.5,321C 133.598,356.786 133.931,392.619 134.5,428.5C 128.811,436.522 121.811,443.189 113.5,448.5C 112.038,447.542 110.705,446.376 109.5,445C 110.069,296.549 110.402,148.049 110.5,-0.5 Z"/></g>
<g><path style="opacity:1" fill="#280384" d="M 249.5,274.5 C 249.833,295.833 250.167,317.167 250.5,338.5C 236.349,342.081 222.682,340.581 209.5,334C 221.913,313.444 235.246,293.611 249.5,274.5 Z"/></g>
<g><path style="opacity:1" fill="#06002c" d="M 30.5,-0.5 C 32.5,-0.5 34.5,-0.5 36.5,-0.5C 36.1667,166.167 35.8333,332.833 35.5,499.5C 34.1667,499.5 32.8333,499.5 31.5,499.5C 31.1667,332.833 30.8333,166.167 30.5,-0.5 Z"/></g>
<g><path style="opacity:1" fill="#5604a5" d="M 375.5,295.5 C 376.404,363.619 376.404,431.619 375.5,499.5C 365.5,499.5 355.5,499.5 345.5,499.5C 345.597,441.617 345.931,383.784 346.5,326C 345.142,325.066 343.808,324.232 342.5,323.5C 349.711,324.196 356.377,322.696 362.5,319C 369.94,312.811 374.274,304.977 375.5,295.5 Z"/></g>
<g><path style="opacity:1" fill="#400398" d="M 295.5,240.5 C 303.084,241.981 310.751,242.648 318.5,242.5C 311.972,266.113 306.305,289.946 301.5,314C 301.408,324.002 306.074,330.502 315.5,333.5C 315.929,388.952 315.929,444.285 315.5,499.5C 309.5,499.5 303.5,499.5 297.5,499.5C 298.069,414.285 298.402,329.118 298.5,244C 297.29,242.961 296.29,241.794 295.5,240.5 Z"/></g>
<g><path style="opacity:1" fill="#1a025f" d="M 135.5,319.5 C 142.363,322.768 149.696,324.434 157.5,324.5C 158.972,327.805 161.305,330.305 164.5,332C 160.89,333.944 157.557,336.277 154.5,339C 155.833,339.667 157.167,339.667 158.5,339C 159.693,337.905 161.027,337.072 162.5,336.5C 161.505,354.161 161.172,371.661 161.5,389C 162.094,389.464 162.761,389.631 163.5,389.5C 155.527,403.787 145.861,416.787 134.5,428.5C 133.931,392.619 133.598,356.786 133.5,321C 134.044,320.283 134.711,319.783 135.5,319.5 Z"/></g>
<g><path style="opacity:1" fill="#1e0369" d="M 163.5,389.5 C 162.761,389.631 162.094,389.464 161.5,389C 161.172,371.661 161.505,354.161 162.5,336.5C 170.387,334.977 178.387,333.643 186.5,332.5C 189.179,332.936 191.845,333.436 194.5,334C 194.957,334.414 195.291,334.914 195.5,335.5C 184.822,353.528 174.155,371.528 163.5,389.5 Z"/></g>
<g><path style="opacity:1" fill="#4a039e" d="M 342.5,323.5 C 343.808,324.232 345.142,325.066 346.5,326C 345.931,383.784 345.597,441.617 345.5,499.5C 335.5,499.5 325.5,499.5 315.5,499.5C 315.929,444.285 315.929,388.952 315.5,333.5C 326.924,336.472 335.924,333.139 342.5,323.5 Z"/></g>
<g><path style="opacity:1" fill="#220179" d="M 221.5,344.5 C 220.761,344.369 220.094,344.536 219.5,345C 220.598,396.451 220.598,447.951 219.5,499.5C 214.833,499.5 210.167,499.5 205.5,499.5C 206.285,446.393 206.618,393.06 206.5,339.5C 206.56,338.957 206.893,338.624 207.5,338.5C 212.256,340.551 216.923,342.551 221.5,344.5 Z"/></g>
<g><path style="opacity:1" fill="#1f0171" d="M 206.5,339.5 C 206.618,393.06 206.285,446.393 205.5,499.5C 196.167,499.5 186.833,499.5 177.5,499.5C 177.405,461.95 177.738,424.283 178.5,386.5C 187.585,370.66 196.918,354.993 206.5,339.5 Z"/></g>
<g><path style="opacity:1" fill="#24017f" d="M 221.5,344.5 C 226.066,345.807 230.733,346.474 235.5,346.5C 235.5,397.5 235.5,448.5 235.5,499.5C 230.167,499.5 224.833,499.5 219.5,499.5C 220.598,447.951 220.598,396.451 219.5,345C 220.094,344.536 220.761,344.369 221.5,344.5 Z"/></g>
<g><path style="opacity:1" fill="#270186" d="M 251.5,344.5 C 251.047,345.458 250.381,346.292 249.5,347C 249.736,397.785 249.736,448.618 249.5,499.5C 244.833,499.5 240.167,499.5 235.5,499.5C 235.5,448.5 235.5,397.5 235.5,346.5C 240.886,346.223 246.219,345.556 251.5,344.5 Z"/></g>
<g><path style="opacity:1" fill="#1c0167" d="M 178.5,386.5 C 177.738,424.283 177.405,461.95 177.5,499.5C 172.167,499.5 166.833,499.5 161.5,499.5C 161.597,470.95 161.93,442.45 162.5,414C 161.906,413.536 161.239,413.369 160.5,413.5C 166.255,404.32 172.255,395.32 178.5,386.5 Z"/></g>
<g><path style="opacity:1" fill="#19015f" d="M 160.5,413.5 C 161.239,413.369 161.906,413.536 162.5,414C 161.93,442.45 161.597,470.95 161.5,499.5C 152.167,499.5 142.833,499.5 133.5,499.5C 134.833,481.167 134.833,462.833 133.5,444.5C 142.902,434.437 151.902,424.104 160.5,413.5 Z"/></g>
<g><path style="opacity:1" fill="#130150" d="M 133.5,444.5 C 134.833,462.833 134.833,481.167 133.5,499.5C 123.5,499.5 113.5,499.5 103.5,499.5C 103.833,486.833 104.167,474.167 104.5,461.5C 114.888,457.137 124.555,451.47 133.5,444.5 Z"/></g>
<g><path style="opacity:1" fill="#0c013b" d="M 63.5,456.5 C 67.8318,459.604 72.4984,461.937 77.5,463.5C 76.7109,463.783 76.0442,464.283 75.5,465C 76.5976,476.451 76.5976,487.951 75.5,499.5C 70.8333,499.5 66.1667,499.5 61.5,499.5C 62.5976,485.284 62.5976,471.118 61.5,457C 62.0944,456.536 62.7611,456.369 63.5,456.5 Z"/></g>
<g><path style="opacity:1" fill="#0f0244" d="M 104.5,461.5 C 104.167,474.167 103.833,486.833 103.5,499.5C 94.1667,499.5 84.8333,499.5 75.5,499.5C 76.5976,487.951 76.5976,476.451 75.5,465C 76.0442,464.283 76.7109,463.783 77.5,463.5C 86.5904,463.829 95.5904,463.162 104.5,461.5 Z"/></g>
</svg>
